<svg xmlns="http://www.w3.org/2000/svg" viewBox="0 0 900 720" font-family="'Segoe UI', system-ui, -apple-system, sans-serif">
  <defs>
    <filter id="shadow" x="-2%" y="-2%" width="104%" height="104%">
      <feDropShadow dx="0" dy="2" stdDeviation="3" flood-opacity="0.08"/>
    </filter>
    <linearGradient id="bgGrad" x1="0%" y1="0%" x2="0%" y2="100%">
      <stop offset="0%" style="stop-color:#f8f9fc"/>
      <stop offset="100%" style="stop-color:#eef1f6"/>
    </linearGradient>
    <marker id="arrowPurple" markerWidth="10" markerHeight="7" refX="10" refY="3.5" orient="auto">
      <polygon points="0 0, 10 3.5, 0 7" fill="#6c5ce7"/>
    </marker>
    <marker id="arrowGreen" markerWidth="10" markerHeight="7" refX="10" refY="3.5" orient="auto">
      <polygon points="0 0, 10 3.5, 0 7" fill="#00b894"/>
    </marker>
  </defs>

  <!-- Background -->
  <rect width="900" height="720" rx="16" fill="url(#bgGrad)"/>

  <!-- Title -->
  <text x="450" y="38" text-anchor="middle" font-size="18" font-weight="700" fill="#1a1a2e">Databricks MCP Toolkit — Arquitetura</text>

  <!-- ═══════════════════════════════════════════════ -->
  <!-- CLAUDE CODE SECTION -->
  <!-- ═══════════════════════════════════════════════ -->
  <rect x="30" y="56" width="840" height="200" rx="12" fill="#f0f0ff" stroke="#c4c4f0" stroke-width="1.5" filter="url(#shadow)"/>
  <rect x="30" y="56" width="840" height="32" rx="12" fill="#6c5ce7"/>
  <rect x="30" y="72" width="840" height="16" fill="#6c5ce7"/>
  <text x="450" y="78" text-anchor="middle" font-size="13" font-weight="700" fill="white">CLAUDE CODE (computador do usuario)</text>

  <!-- Agents -->
  <text x="180" y="110" text-anchor="middle" font-size="11" font-weight="600" fill="#6c5ce7">AGENTES</text>

  <rect x="45" y="120" width="150" height="42" rx="8" fill="white" stroke="#a29bfe" stroke-width="1"/>
  <text x="120" y="138" text-anchor="middle" font-size="10" font-weight="600" fill="#6c5ce7">databricks-analyst</text>
  <text x="120" y="152" text-anchor="middle" font-size="9" fill="#666">Dados · SQL · Notebooks</text>

  <rect x="205" y="120" width="150" height="42" rx="8" fill="white" stroke="#a29bfe" stroke-width="1"/>
  <text x="280" y="138" text-anchor="middle" font-size="10" font-weight="600" fill="#6c5ce7">databricks-scientist</text>
  <text x="280" y="152" text-anchor="middle" font-size="9" fill="#666">MLflow · ML · Series</text>

  <rect x="125" y="170" width="150" height="42" rx="8" fill="white" stroke="#a29bfe" stroke-width="1"/>
  <text x="200" y="188" text-anchor="middle" font-size="10" font-weight="600" fill="#6c5ce7">databricks-engineer</text>
  <text x="200" y="202" text-anchor="middle" font-size="9" fill="#666">Lakehouse · Infra · Gov</text>

  <!-- Skills -->
  <text x="640" y="110" text-anchor="middle" font-size="11" font-weight="600" fill="#6c5ce7">SKILLS (15 SLASH COMMANDS)</text>

  <rect x="440" y="120" width="70" height="28" rx="6" fill="white" stroke="#a29bfe" stroke-width="1"/>
  <text x="475" y="138" text-anchor="middle" font-size="9" font-weight="500" fill="#444">/sql</text>

  <rect x="518" y="120" width="78" height="28" rx="6" fill="white" stroke="#a29bfe" stroke-width="1"/>
  <text x="557" y="138" text-anchor="middle" font-size="9" font-weight="500" fill="#444">/analyze</text>

  <rect x="604" y="120" width="78" height="28" rx="6" fill="white" stroke="#a29bfe" stroke-width="1"/>
  <text x="643" y="138" text-anchor="middle" font-size="9" font-weight="500" fill="#444">/notebook</text>

  <rect x="690" y="120" width="78" height="28" rx="6" fill="white" stroke="#a29bfe" stroke-width="1"/>
  <text x="729" y="138" text-anchor="middle" font-size="9" font-weight="500" fill="#444">/explore</text>

  <rect x="776" y="120" width="78" height="28" rx="6" fill="white" stroke="#a29bfe" stroke-width="1"/>
  <text x="815" y="138" text-anchor="middle" font-size="9" font-weight="500" fill="#444">/predict</text>

  <rect x="440" y="155" width="70" height="28" rx="6" fill="white" stroke="#a29bfe" stroke-width="1"/>
  <text x="475" y="173" text-anchor="middle" font-size="9" font-weight="500" fill="#444">/stats</text>

  <rect x="518" y="155" width="90" height="28" rx="6" fill="white" stroke="#a29bfe" stroke-width="1"/>
  <text x="563" y="173" text-anchor="middle" font-size="9" font-weight="500" fill="#444">/timeseries</text>

  <rect x="616" y="155" width="70" height="28" rx="6" fill="white" stroke="#a29bfe" stroke-width="1"/>
  <text x="651" y="173" text-anchor="middle" font-size="9" font-weight="500" fill="#444">/model</text>

  <rect x="694" y="155" width="76" height="28" rx="6" fill="white" stroke="#a29bfe" stroke-width="1"/>
  <text x="732" y="173" text-anchor="middle" font-size="9" font-weight="500" fill="#444">/feature</text>

  <rect x="778" y="155" width="76" height="28" rx="6" fill="white" stroke="#a29bfe" stroke-width="1"/>
  <text x="816" y="173" text-anchor="middle" font-size="9" font-weight="500" fill="#444">/ingest</text>

  <rect x="440" y="190" width="96" height="28" rx="6" fill="white" stroke="#a29bfe" stroke-width="1"/>
  <text x="488" y="208" text-anchor="middle" font-size="9" font-weight="500" fill="#444">/governance</text>

  <rect x="544" y="190" width="66" height="28" rx="6" fill="white" stroke="#a29bfe" stroke-width="1"/>
  <text x="577" y="208" text-anchor="middle" font-size="9" font-weight="500" fill="#444">/infra</text>

  <rect x="618" y="190" width="78" height="28" rx="6" fill="white" stroke="#a29bfe" stroke-width="1"/>
  <text x="657" y="208" text-anchor="middle" font-size="9" font-weight="500" fill="#444">/migrate</text>

  <rect x="704" y="190" width="110" height="28" rx="6" fill="white" stroke="#a29bfe" stroke-width="1"/>
  <text x="759" y="208" text-anchor="middle" font-size="9" font-weight="500" fill="#444">/observability</text>

  <!-- Arrow: Claude → MCP -->
  <line x1="450" y1="256" x2="450" y2="290" stroke="#6c5ce7" stroke-width="2" marker-end="url(#arrowPurple)"/>
  <rect x="380" y="262" width="140" height="22" rx="11" fill="white" stroke="#6c5ce7" stroke-width="1"/>
  <text x="450" y="277" text-anchor="middle" font-size="10" font-weight="600" fill="#6c5ce7">HTTPS + Headers</text>

  <!-- ═══════════════════════════════════════════════ -->
  <!-- MCP SERVER SECTION -->
  <!-- ═══════════════════════════════════════════════ -->
  <rect x="30" y="292" width="840" height="230" rx="12" fill="#f0faf0" stroke="#b8e6b8" stroke-width="1.5" filter="url(#shadow)"/>
  <rect x="30" y="292" width="840" height="32" rx="12" fill="#00b894"/>
  <rect x="30" y="308" width="840" height="16" fill="#00b894"/>
  <text x="450" y="314" text-anchor="middle" font-size="13" font-weight="700" fill="white">MCP SERVER (cloud) — 26 FERRAMENTAS</text>

  <!-- Data & SQL tools -->
  <text x="230" y="344" text-anchor="middle" font-size="11" font-weight="600" fill="#00b894">DADOS &amp; SQL (9)</text>

  <rect x="50" y="354" width="108" height="28" rx="6" fill="white" stroke="#55efc4" stroke-width="1"/>
  <text x="104" y="372" text-anchor="middle" font-size="9" fill="#333">run_sql</text>

  <rect x="166" y="354" width="108" height="28" rx="6" fill="white" stroke="#55efc4" stroke-width="1"/>
  <text x="220" y="372" text-anchor="middle" font-size="9" fill="#333">list_catalogs</text>

  <rect x="282" y="354" width="108" height="28" rx="6" fill="white" stroke="#55efc4" stroke-width="1"/>
  <text x="336" y="372" text-anchor="middle" font-size="9" fill="#333">list_schemas</text>

  <rect x="50" y="388" width="108" height="28" rx="6" fill="white" stroke="#55efc4" stroke-width="1"/>
  <text x="104" y="406" text-anchor="middle" font-size="9" fill="#333">list_tables</text>

  <rect x="166" y="388" width="108" height="28" rx="6" fill="white" stroke="#55efc4" stroke-width="1"/>
  <text x="220" y="406" text-anchor="middle" font-size="9" fill="#333">describe_table</text>

  <rect x="282" y="388" width="108" height="28" rx="6" fill="white" stroke="#55efc4" stroke-width="1"/>
  <text x="336" y="406" text-anchor="middle" font-size="9" fill="#333">sample_table</text>

  <rect x="50" y="422" width="108" height="22" rx="6" fill="white" stroke="#55efc4" stroke-width="1"/>
  <text x="104" y="437" text-anchor="middle" font-size="8" fill="#666">table_stats</text>

  <rect x="166" y="422" width="108" height="22" rx="6" fill="white" stroke="#55efc4" stroke-width="1"/>
  <text x="220" y="437" text-anchor="middle" font-size="8" fill="#666">list_warehouses</text>

  <rect x="282" y="422" width="108" height="22" rx="6" fill="white" stroke="#55efc4" stroke-width="1"/>
  <text x="336" y="437" text-anchor="middle" font-size="8" fill="#666">query_history</text>

  <!-- Separator 1 -->
  <line x1="400" y1="344" x2="400" y2="450" stroke="#b8e6b8" stroke-width="1" stroke-dasharray="4,4"/>

  <!-- MLflow tools -->
  <text x="520" y="344" text-anchor="middle" font-size="11" font-weight="600" fill="#00b894">MLFLOW (9)</text>

  <rect x="420" y="354" width="100" height="28" rx="6" fill="white" stroke="#55efc4" stroke-width="1"/>
  <text x="470" y="372" text-anchor="middle" font-size="8" fill="#333">list_experiments</text>

  <rect x="528" y="354" width="100" height="28" rx="6" fill="white" stroke="#55efc4" stroke-width="1"/>
  <text x="578" y="372" text-anchor="middle" font-size="8" fill="#333">get_run_details</text>

  <rect x="420" y="388" width="100" height="28" rx="6" fill="white" stroke="#55efc4" stroke-width="1"/>
  <text x="470" y="406" text-anchor="middle" font-size="8" fill="#333">compare_runs</text>

  <rect x="528" y="388" width="100" height="28" rx="6" fill="white" stroke="#55efc4" stroke-width="1"/>
  <text x="578" y="406" text-anchor="middle" font-size="8" fill="#333">get_model_versions</text>

  <rect x="420" y="422" width="100" height="22" rx="6" fill="white" stroke="#55efc4" stroke-width="1"/>
  <text x="470" y="437" text-anchor="middle" font-size="8" fill="#666">+4 more</text>

  <!-- Separator 2 -->
  <line x1="640" y1="344" x2="640" y2="450" stroke="#b8e6b8" stroke-width="1" stroke-dasharray="4,4"/>

  <!-- Infrastructure tools -->
  <text x="760" y="344" text-anchor="middle" font-size="11" font-weight="600" fill="#00b894">INFRA &amp; GOV (8)</text>

  <rect x="660" y="354" width="100" height="28" rx="6" fill="white" stroke="#55efc4" stroke-width="1"/>
  <text x="710" y="372" text-anchor="middle" font-size="8" fill="#333">list_jobs</text>

  <rect x="768" y="354" width="100" height="28" rx="6" fill="white" stroke="#55efc4" stroke-width="1"/>
  <text x="818" y="372" text-anchor="middle" font-size="8" fill="#333">list_clusters</text>

  <rect x="660" y="388" width="100" height="28" rx="6" fill="white" stroke="#55efc4" stroke-width="1"/>
  <text x="710" y="406" text-anchor="middle" font-size="8" fill="#333">get_grants</text>

  <rect x="768" y="388" width="100" height="28" rx="6" fill="white" stroke="#55efc4" stroke-width="1"/>
  <text x="818" y="406" text-anchor="middle" font-size="8" fill="#333">list_pipelines</text>

  <rect x="660" y="422" width="100" height="22" rx="6" fill="white" stroke="#55efc4" stroke-width="1"/>
  <text x="710" y="437" text-anchor="middle" font-size="8" fill="#666">list_shares</text>

  <rect x="768" y="422" width="100" height="22" rx="6" fill="white" stroke="#55efc4" stroke-width="1"/>
  <text x="818" y="437" text-anchor="middle" font-size="8" fill="#666">+2 more</text>

  <!-- Arrow: MCP → Databricks -->
  <line x1="450" y1="522" x2="450" y2="560" stroke="#00b894" stroke-width="2" marker-end="url(#arrowGreen)"/>
  <rect x="383" y="530" width="134" height="22" rx="11" fill="white" stroke="#00b894" stroke-width="1"/>
  <text x="450" y="545" text-anchor="middle" font-size="10" font-weight="600" fill="#00b894">Databricks SDK</text>

  <!-- ═══════════════════════════════════════════════ -->
  <!-- DATABRICKS SECTION -->
  <!-- ═══════════════════════════════════════════════ -->
  <rect x="30" y="562" width="840" height="140" rx="12" fill="#fff5f0" stroke="#f0c8b0" stroke-width="1.5" filter="url(#shadow)"/>
  <rect x="30" y="562" width="840" height="32" rx="12" fill="#e17055"/>
  <rect x="30" y="578" width="840" height="16" fill="#e17055"/>
  <text x="450" y="584" text-anchor="middle" font-size="13" font-weight="700" fill="white">DATABRICKS WORKSPACE</text>

  <rect x="45" y="604" width="115" height="52" rx="8" fill="white" stroke="#fab1a0" stroke-width="1"/>
  <text x="102" y="624" text-anchor="middle" font-size="10" font-weight="600" fill="#e17055">SQL Warehouses</text>
  <text x="102" y="640" text-anchor="middle" font-size="8" fill="#888">Queries</text>

  <rect x="170" y="604" width="115" height="52" rx="8" fill="white" stroke="#fab1a0" stroke-width="1"/>
  <text x="227" y="624" text-anchor="middle" font-size="10" font-weight="600" fill="#e17055">Unity Catalog</text>
  <text x="227" y="640" text-anchor="middle" font-size="8" fill="#888">Catalogs · Governance</text>

  <rect x="295" y="604" width="95" height="52" rx="8" fill="white" stroke="#fab1a0" stroke-width="1"/>
  <text x="342" y="624" text-anchor="middle" font-size="10" font-weight="600" fill="#e17055">MLflow</text>
  <text x="342" y="640" text-anchor="middle" font-size="8" fill="#888">Experiments</text>

  <rect x="400" y="604" width="95" height="52" rx="8" fill="white" stroke="#fab1a0" stroke-width="1"/>
  <text x="447" y="624" text-anchor="middle" font-size="10" font-weight="600" fill="#e17055">Workflows</text>
  <text x="447" y="640" text-anchor="middle" font-size="8" fill="#888">Jobs · Pipelines</text>

  <rect x="505" y="604" width="95" height="52" rx="8" fill="white" stroke="#fab1a0" stroke-width="1"/>
  <text x="552" y="624" text-anchor="middle" font-size="10" font-weight="600" fill="#e17055">Compute</text>
  <text x="552" y="640" text-anchor="middle" font-size="8" fill="#888">Clusters</text>

  <rect x="610" y="604" width="115" height="52" rx="8" fill="white" stroke="#fab1a0" stroke-width="1"/>
  <text x="667" y="624" text-anchor="middle" font-size="10" font-weight="600" fill="#e17055">Delta Sharing</text>
  <text x="667" y="640" text-anchor="middle" font-size="8" fill="#888">Shares · Recipients</text>

  <rect x="735" y="604" width="125" height="52" rx="8" fill="white" stroke="#fab1a0" stroke-width="1"/>
  <text x="797" y="624" text-anchor="middle" font-size="10" font-weight="600" fill="#e17055">System Tables</text>
  <text x="797" y="640" text-anchor="middle" font-size="8" fill="#888">Billing · Audit · Lineage</text>

  <!-- Footer note -->
  <text x="450" y="710" text-anchor="middle" font-size="10" fill="#999">Credenciais enviadas via HTTPS headers por request · API Key protege o server · Cada usuario usa seu proprio PAT</text>
</svg>
