<svg xmlns="http://www.w3.org/2000/svg" viewBox="0 0 900 620" font-family="'Segoe UI', system-ui, -apple-system, sans-serif">
  <defs>
    <filter id="shadow" x="-2%" y="-2%" width="104%" height="104%">
      <feDropShadow dx="0" dy="2" stdDeviation="3" flood-opacity="0.08"/>
    </filter>
    <linearGradient id="bgGrad" x1="0%" y1="0%" x2="0%" y2="100%">
      <stop offset="0%" style="stop-color:#f8f9fc"/>
      <stop offset="100%" style="stop-color:#eef1f6"/>
    </linearGradient>
  </defs>

  <!-- Background -->
  <rect width="900" height="620" rx="16" fill="url(#bgGrad)"/>

  <!-- Title -->
  <text x="450" y="38" text-anchor="middle" font-size="18" font-weight="700" fill="#1a1a2e">Databricks MCP Toolkit — Arquitetura</text>

  <!-- ═══════════════════════════════════════════════ -->
  <!-- CLAUDE CODE SECTION -->
  <!-- ═══════════════════════════════════════════════ -->
  <rect x="30" y="56" width="840" height="180" rx="12" fill="#f0f0ff" stroke="#c4c4f0" stroke-width="1.5" filter="url(#shadow)"/>
  <rect x="30" y="56" width="840" height="32" rx="12" fill="#6c5ce7"/>
  <rect x="30" y="72" width="840" height="16" fill="#6c5ce7"/>
  <text x="450" y="78" text-anchor="middle" font-size="13" font-weight="700" fill="white">CLAUDE CODE</text>

  <!-- Agents -->
  <text x="240" y="110" text-anchor="middle" font-size="11" font-weight="600" fill="#6c5ce7">AGENTES</text>

  <rect x="60" y="120" width="160" height="48" rx="8" fill="white" stroke="#a29bfe" stroke-width="1"/>
  <text x="140" y="140" text-anchor="middle" font-size="10" font-weight="600" fill="#6c5ce7">databricks-analyst</text>
  <text x="140" y="155" text-anchor="middle" font-size="9" fill="#666">Dados · SQL · Notebooks</text>

  <rect x="240" y="120" width="160" height="48" rx="8" fill="white" stroke="#a29bfe" stroke-width="1"/>
  <text x="320" y="140" text-anchor="middle" font-size="10" font-weight="600" fill="#6c5ce7">data-scientist</text>
  <text x="320" y="155" text-anchor="middle" font-size="9" fill="#666">MLflow · ML · Séries</text>

  <!-- Skills -->
  <text x="660" y="110" text-anchor="middle" font-size="11" font-weight="600" fill="#6c5ce7">SKILLS (SLASH COMMANDS)</text>

  <rect x="440" y="120" width="70" height="30" rx="6" fill="white" stroke="#a29bfe" stroke-width="1"/>
  <text x="475" y="140" text-anchor="middle" font-size="10" font-weight="500" fill="#444">/sql</text>

  <rect x="520" y="120" width="82" height="30" rx="6" fill="white" stroke="#a29bfe" stroke-width="1"/>
  <text x="561" y="140" text-anchor="middle" font-size="10" font-weight="500" fill="#444">/analyze</text>

  <rect x="612" y="120" width="82" height="30" rx="6" fill="white" stroke="#a29bfe" stroke-width="1"/>
  <text x="653" y="140" text-anchor="middle" font-size="10" font-weight="500" fill="#444">/notebook</text>

  <rect x="704" y="120" width="76" height="30" rx="6" fill="white" stroke="#a29bfe" stroke-width="1"/>
  <text x="742" y="140" text-anchor="middle" font-size="10" font-weight="500" fill="#444">/explore</text>

  <rect x="790" y="120" width="70" height="30" rx="6" fill="white" stroke="#a29bfe" stroke-width="1"/>
  <text x="825" y="140" text-anchor="middle" font-size="10" font-weight="500" fill="#444">/model</text>

  <rect x="440" y="160" width="76" height="30" rx="6" fill="white" stroke="#a29bfe" stroke-width="1"/>
  <text x="478" y="180" text-anchor="middle" font-size="10" font-weight="500" fill="#444">/predict</text>

  <rect x="526" y="160" width="66" height="30" rx="6" fill="white" stroke="#a29bfe" stroke-width="1"/>
  <text x="559" y="180" text-anchor="middle" font-size="10" font-weight="500" fill="#444">/stats</text>

  <rect x="602" y="160" width="96" height="30" rx="6" fill="white" stroke="#a29bfe" stroke-width="1"/>
  <text x="650" y="180" text-anchor="middle" font-size="10" font-weight="500" fill="#444">/timeseries</text>

  <rect x="708" y="160" width="76" height="30" rx="6" fill="white" stroke="#a29bfe" stroke-width="1"/>
  <text x="746" y="180" text-anchor="middle" font-size="10" font-weight="500" fill="#444">/feature</text>

  <!-- Arrow: Claude → MCP -->
  <line x1="450" y1="236" x2="450" y2="268" stroke="#6c5ce7" stroke-width="2" marker-end="url(#arrowPurple)"/>
  <defs>
    <marker id="arrowPurple" markerWidth="10" markerHeight="7" refX="10" refY="3.5" orient="auto">
      <polygon points="0 0, 10 3.5, 0 7" fill="#6c5ce7"/>
    </marker>
  </defs>
  <rect x="380" y="242" width="140" height="22" rx="11" fill="white" stroke="#6c5ce7" stroke-width="1"/>
  <text x="450" y="257" text-anchor="middle" font-size="10" font-weight="600" fill="#6c5ce7">MCP Protocol (stdio)</text>

  <!-- ═══════════════════════════════════════════════ -->
  <!-- MCP SERVER SECTION -->
  <!-- ═══════════════════════════════════════════════ -->
  <rect x="30" y="270" width="840" height="175" rx="12" fill="#f0faf0" stroke="#b8e6b8" stroke-width="1.5" filter="url(#shadow)"/>
  <rect x="30" y="270" width="840" height="32" rx="12" fill="#00b894"/>
  <rect x="30" y="286" width="840" height="16" fill="#00b894"/>
  <text x="450" y="292" text-anchor="middle" font-size="13" font-weight="700" fill="white">MCP SERVER — 18 FERRAMENTAS</text>

  <!-- Data & SQL tools -->
  <text x="240" y="322" text-anchor="middle" font-size="11" font-weight="600" fill="#00b894">DADOS &amp; SQL (9)</text>

  <rect x="50" y="332" width="110" height="32" rx="6" fill="white" stroke="#55efc4" stroke-width="1"/>
  <text x="105" y="352" text-anchor="middle" font-size="10" fill="#333">run_sql</text>

  <rect x="170" y="332" width="110" height="32" rx="6" fill="white" stroke="#55efc4" stroke-width="1"/>
  <text x="225" y="352" text-anchor="middle" font-size="10" fill="#333">list_catalogs</text>

  <rect x="290" y="332" width="110" height="32" rx="6" fill="white" stroke="#55efc4" stroke-width="1"/>
  <text x="345" y="352" text-anchor="middle" font-size="10" fill="#333">list_schemas</text>

  <rect x="50" y="372" width="110" height="32" rx="6" fill="white" stroke="#55efc4" stroke-width="1"/>
  <text x="105" y="392" text-anchor="middle" font-size="10" fill="#333">list_tables</text>

  <rect x="170" y="372" width="110" height="32" rx="6" fill="white" stroke="#55efc4" stroke-width="1"/>
  <text x="225" y="392" text-anchor="middle" font-size="10" fill="#333">describe_table</text>

  <rect x="290" y="372" width="110" height="32" rx="6" fill="white" stroke="#55efc4" stroke-width="1"/>
  <text x="345" y="392" text-anchor="middle" font-size="10" fill="#333">sample_table</text>

  <rect x="50" y="412" width="110" height="22" rx="6" fill="white" stroke="#55efc4" stroke-width="1"/>
  <text x="105" y="427" text-anchor="middle" font-size="9" fill="#666">table_stats</text>

  <rect x="170" y="412" width="110" height="22" rx="6" fill="white" stroke="#55efc4" stroke-width="1"/>
  <text x="225" y="427" text-anchor="middle" font-size="9" fill="#666">list_warehouses</text>

  <rect x="290" y="412" width="110" height="22" rx="6" fill="white" stroke="#55efc4" stroke-width="1"/>
  <text x="345" y="427" text-anchor="middle" font-size="9" fill="#666">query_history</text>

  <!-- Separator -->
  <line x1="430" y1="322" x2="430" y2="434" stroke="#b8e6b8" stroke-width="1" stroke-dasharray="4,4"/>

  <!-- MLflow tools -->
  <text x="660" y="322" text-anchor="middle" font-size="11" font-weight="600" fill="#00b894">MLFLOW &amp; MODEL REGISTRY (9)</text>

  <rect x="460" y="332" width="130" height="32" rx="6" fill="white" stroke="#55efc4" stroke-width="1"/>
  <text x="525" y="352" text-anchor="middle" font-size="10" fill="#333">list_experiments</text>

  <rect x="600" y="332" width="130" height="32" rx="6" fill="white" stroke="#55efc4" stroke-width="1"/>
  <text x="665" y="352" text-anchor="middle" font-size="10" fill="#333">get_experiment_runs</text>

  <rect x="740" y="332" width="120" height="32" rx="6" fill="white" stroke="#55efc4" stroke-width="1"/>
  <text x="800" y="352" text-anchor="middle" font-size="10" fill="#333">get_run_details</text>

  <rect x="460" y="372" width="130" height="32" rx="6" fill="white" stroke="#55efc4" stroke-width="1"/>
  <text x="525" y="392" text-anchor="middle" font-size="10" fill="#333">compare_runs</text>

  <rect x="600" y="372" width="130" height="32" rx="6" fill="white" stroke="#55efc4" stroke-width="1"/>
  <text x="665" y="392" text-anchor="middle" font-size="10" fill="#333">get_metric_history</text>

  <rect x="740" y="372" width="120" height="32" rx="6" fill="white" stroke="#55efc4" stroke-width="1"/>
  <text x="800" y="392" text-anchor="middle" font-size="9" fill="#333">list_registered_models</text>

  <rect x="460" y="412" width="130" height="22" rx="6" fill="white" stroke="#55efc4" stroke-width="1"/>
  <text x="525" y="427" text-anchor="middle" font-size="9" fill="#666">get_model_versions</text>

  <rect x="600" y="412" width="130" height="22" rx="6" fill="white" stroke="#55efc4" stroke-width="1"/>
  <text x="665" y="427" text-anchor="middle" font-size="9" fill="#666">list_serving_endpoints</text>

  <rect x="740" y="412" width="120" height="22" rx="6" fill="white" stroke="#55efc4" stroke-width="1"/>
  <text x="800" y="427" text-anchor="middle" font-size="9" fill="#666">get_serving_endpoint</text>

  <!-- Arrow: MCP → Databricks -->
  <line x1="450" y1="445" x2="450" y2="480" stroke="#00b894" stroke-width="2" marker-end="url(#arrowGreen)"/>
  <defs>
    <marker id="arrowGreen" markerWidth="10" markerHeight="7" refX="10" refY="3.5" orient="auto">
      <polygon points="0 0, 10 3.5, 0 7" fill="#00b894"/>
    </marker>
  </defs>
  <rect x="383" y="453" width="134" height="22" rx="11" fill="white" stroke="#00b894" stroke-width="1"/>
  <text x="450" y="468" text-anchor="middle" font-size="10" font-weight="600" fill="#00b894">Databricks SDK</text>

  <!-- ═══════════════════════════════════════════════ -->
  <!-- DATABRICKS SECTION -->
  <!-- ═══════════════════════════════════════════════ -->
  <rect x="30" y="482" width="840" height="120" rx="12" fill="#fff5f0" stroke="#f0c8b0" stroke-width="1.5" filter="url(#shadow)"/>
  <rect x="30" y="482" width="840" height="32" rx="12" fill="#e17055"/>
  <rect x="30" y="498" width="840" height="16" fill="#e17055"/>
  <text x="450" y="504" text-anchor="middle" font-size="13" font-weight="700" fill="white">DATABRICKS WORKSPACE</text>

  <rect x="50" y="524" width="132" height="60" rx="8" fill="white" stroke="#fab1a0" stroke-width="1"/>
  <text x="116" y="548" text-anchor="middle" font-size="11" font-weight="600" fill="#e17055">SQL Warehouses</text>
  <text x="116" y="564" text-anchor="middle" font-size="9" fill="#888">Execução de queries</text>

  <rect x="200" y="524" width="132" height="60" rx="8" fill="white" stroke="#fab1a0" stroke-width="1"/>
  <text x="266" y="548" text-anchor="middle" font-size="11" font-weight="600" fill="#e17055">Unity Catalog</text>
  <text x="266" y="564" text-anchor="middle" font-size="9" fill="#888">Catálogos · Schemas · Tabelas</text>

  <rect x="350" y="524" width="132" height="60" rx="8" fill="white" stroke="#fab1a0" stroke-width="1"/>
  <text x="416" y="548" text-anchor="middle" font-size="11" font-weight="600" fill="#e17055">MLflow</text>
  <text x="416" y="564" text-anchor="middle" font-size="9" fill="#888">Experimentos · Runs</text>

  <rect x="500" y="524" width="132" height="60" rx="8" fill="white" stroke="#fab1a0" stroke-width="1"/>
  <text x="566" y="548" text-anchor="middle" font-size="11" font-weight="600" fill="#e17055">Model Registry</text>
  <text x="566" y="564" text-anchor="middle" font-size="9" fill="#888">Modelos · Versões</text>

  <rect x="650" y="524" width="132" height="60" rx="8" fill="white" stroke="#fab1a0" stroke-width="1"/>
  <text x="716" y="548" text-anchor="middle" font-size="11" font-weight="600" fill="#e17055">Serving</text>
  <text x="716" y="564" text-anchor="middle" font-size="9" fill="#888">Endpoints · Inference</text>

  <rect x="800" y="524" width="60" height="60" rx="8" fill="white" stroke="#fab1a0" stroke-width="1"/>
  <text x="830" y="548" text-anchor="middle" font-size="11" font-weight="600" fill="#e17055">APIs</text>
  <text x="830" y="564" text-anchor="middle" font-size="9" fill="#888">REST</text>
</svg>
